<mxfile host="app.diagrams.net" modified="2023-11-16T07:44:07.033Z" agent="Mozilla/5.0 (Windows NT 10.0; Win64; x64) AppleWebKit/537.36 (KHTML, like Gecko) Chrome/119.0.0.0 Safari/537.36 Edg/119.0.0.0" version="22.1.2" etag="abmIxhoQLho8MI5RNQw0" type="device">
  <diagram id="cLJqViy2UgR4zn7-Z_-I" name="Pagina-1">
    <mxGraphModel dx="1195" dy="2299" grid="1" gridSize="10" guides="1" tooltips="1" connect="1" arrows="1" fold="1" page="1" pageScale="1" pageWidth="827" pageHeight="1169" math="0" shadow="0">
      <root>
        <mxCell id="0" />
        <mxCell id="1" parent="0" />
        <mxCell id="AIQE-jx9AXwTJlLra-hW-2" value="&lt;font style=&quot;font-size: 25px;&quot;&gt;Microservizio &quot;Task&quot;&lt;/font&gt;" style="ellipse;whiteSpace=wrap;html=1;" vertex="1" parent="1">
          <mxGeometry x="1720" y="120" width="400" height="400" as="geometry" />
        </mxCell>
        <mxCell id="AIQE-jx9AXwTJlLra-hW-3" value="" style="rounded=1;whiteSpace=wrap;html=1;fillColor=none;" vertex="1" parent="1">
          <mxGeometry x="1680" y="-240" width="480" height="160" as="geometry" />
        </mxCell>
        <mxCell id="AIQE-jx9AXwTJlLra-hW-4" value="" style="rounded=1;whiteSpace=wrap;html=1;fillColor=none;rotation=-90;" vertex="1" parent="1">
          <mxGeometry x="1120.8" y="237.3" width="474.39" height="160" as="geometry" />
        </mxCell>
        <mxCell id="AIQE-jx9AXwTJlLra-hW-5" value="&lt;font style=&quot;font-size: 20px;&quot;&gt;Attori&lt;/font&gt;" style="text;html=1;strokeColor=none;fillColor=none;align=center;verticalAlign=middle;whiteSpace=wrap;rounded=0;" vertex="1" parent="1">
          <mxGeometry x="1275.5" y="50" width="60" height="30" as="geometry" />
        </mxCell>
        <mxCell id="AIQE-jx9AXwTJlLra-hW-6" value="&lt;font style=&quot;font-size: 20px;&quot;&gt;Dipendente&lt;/font&gt;" style="rounded=0;whiteSpace=wrap;html=1;" vertex="1" parent="1">
          <mxGeometry x="1293" y="100" width="130" height="234" as="geometry" />
        </mxCell>
        <mxCell id="AIQE-jx9AXwTJlLra-hW-7" value="" style="endArrow=classic;html=1;rounded=0;" edge="1" parent="1">
          <mxGeometry width="50" height="50" relative="1" as="geometry">
            <mxPoint x="1480" y="160" as="sourcePoint" />
            <mxPoint x="1680" y="160" as="targetPoint" />
          </mxGeometry>
        </mxCell>
        <mxCell id="AIQE-jx9AXwTJlLra-hW-8" value="&lt;font style=&quot;font-size: 15px;&quot;&gt;Crea Task&lt;/font&gt;" style="edgeLabel;html=1;align=center;verticalAlign=middle;resizable=0;points=[];" vertex="1" connectable="0" parent="AIQE-jx9AXwTJlLra-hW-7">
          <mxGeometry x="-0.0574" relative="1" as="geometry">
            <mxPoint as="offset" />
          </mxGeometry>
        </mxCell>
        <mxCell id="AIQE-jx9AXwTJlLra-hW-16" value="" style="endArrow=classic;html=1;rounded=0;" edge="1" parent="1">
          <mxGeometry width="50" height="50" relative="1" as="geometry">
            <mxPoint x="1480" y="198" as="sourcePoint" />
            <mxPoint x="1680" y="198.95999999999998" as="targetPoint" />
          </mxGeometry>
        </mxCell>
        <mxCell id="AIQE-jx9AXwTJlLra-hW-17" value="&lt;font style=&quot;font-size: 15px;&quot;&gt;Rimuovi Task&lt;br&gt;&lt;/font&gt;" style="edgeLabel;html=1;align=center;verticalAlign=middle;resizable=0;points=[];" vertex="1" connectable="0" parent="AIQE-jx9AXwTJlLra-hW-16">
          <mxGeometry x="-0.0574" relative="1" as="geometry">
            <mxPoint as="offset" />
          </mxGeometry>
        </mxCell>
        <mxCell id="AIQE-jx9AXwTJlLra-hW-18" value="" style="endArrow=none;html=1;rounded=0;startArrow=classic;startFill=1;endFill=0;" edge="1" parent="1">
          <mxGeometry width="50" height="50" relative="1" as="geometry">
            <mxPoint x="1480" y="280" as="sourcePoint" />
            <mxPoint x="1680" y="280.96" as="targetPoint" />
          </mxGeometry>
        </mxCell>
        <mxCell id="AIQE-jx9AXwTJlLra-hW-19" value="&lt;font style=&quot;font-size: 15px;&quot;&gt;Lista Task&lt;br&gt;&lt;/font&gt;" style="edgeLabel;html=1;align=center;verticalAlign=middle;resizable=0;points=[];" vertex="1" connectable="0" parent="AIQE-jx9AXwTJlLra-hW-18">
          <mxGeometry x="-0.0574" relative="1" as="geometry">
            <mxPoint as="offset" />
          </mxGeometry>
        </mxCell>
        <mxCell id="AIQE-jx9AXwTJlLra-hW-20" value="&lt;font style=&quot;font-size: 20px;&quot;&gt;Manager&lt;br&gt;&lt;/font&gt;" style="rounded=0;whiteSpace=wrap;html=1;" vertex="1" parent="1">
          <mxGeometry x="1293" y="354" width="130" height="186" as="geometry" />
        </mxCell>
        <mxCell id="AIQE-jx9AXwTJlLra-hW-25" value="" style="rounded=1;whiteSpace=wrap;html=1;fillColor=none;rotation=-90;" vertex="1" parent="1">
          <mxGeometry x="2240" y="238" width="480" height="160" as="geometry" />
        </mxCell>
        <mxCell id="AIQE-jx9AXwTJlLra-hW-26" value="&lt;font style=&quot;font-size: 20px;&quot;&gt;Database&lt;/font&gt;" style="shape=cylinder3;whiteSpace=wrap;html=1;boundedLbl=1;backgroundOutline=1;size=15;" vertex="1" parent="1">
          <mxGeometry x="2425" y="198" width="110" height="240" as="geometry" />
        </mxCell>
        <mxCell id="AIQE-jx9AXwTJlLra-hW-27" value="" style="endArrow=classic;html=1;rounded=0;" edge="1" parent="1">
          <mxGeometry width="50" height="50" relative="1" as="geometry">
            <mxPoint x="2160" y="198.69000000000005" as="sourcePoint" />
            <mxPoint x="2360" y="198" as="targetPoint" />
          </mxGeometry>
        </mxCell>
        <mxCell id="AIQE-jx9AXwTJlLra-hW-28" value="&lt;font style=&quot;font-size: 15px;&quot;&gt;Crea Task&lt;br&gt;&lt;/font&gt;" style="edgeLabel;html=1;align=center;verticalAlign=middle;resizable=0;points=[];" vertex="1" connectable="0" parent="AIQE-jx9AXwTJlLra-hW-27">
          <mxGeometry x="-0.0574" relative="1" as="geometry">
            <mxPoint as="offset" />
          </mxGeometry>
        </mxCell>
        <mxCell id="AIQE-jx9AXwTJlLra-hW-29" value="" style="endArrow=classic;html=1;rounded=0;" edge="1" parent="1">
          <mxGeometry width="50" height="50" relative="1" as="geometry">
            <mxPoint x="2160" y="280.35000000000014" as="sourcePoint" />
            <mxPoint x="2360" y="280" as="targetPoint" />
          </mxGeometry>
        </mxCell>
        <mxCell id="AIQE-jx9AXwTJlLra-hW-30" value="&lt;font style=&quot;font-size: 15px;&quot;&gt;Rimuovi Task&lt;br&gt;&lt;/font&gt;" style="edgeLabel;html=1;align=center;verticalAlign=middle;resizable=0;points=[];" vertex="1" connectable="0" parent="AIQE-jx9AXwTJlLra-hW-29">
          <mxGeometry x="-0.0574" relative="1" as="geometry">
            <mxPoint as="offset" />
          </mxGeometry>
        </mxCell>
        <mxCell id="AIQE-jx9AXwTJlLra-hW-31" value="" style="endArrow=none;html=1;rounded=0;startArrow=classic;startFill=1;endFill=0;" edge="1" parent="1">
          <mxGeometry width="50" height="50" relative="1" as="geometry">
            <mxPoint x="2160" y="438.6900000000001" as="sourcePoint" />
            <mxPoint x="2360" y="438" as="targetPoint" />
          </mxGeometry>
        </mxCell>
        <mxCell id="AIQE-jx9AXwTJlLra-hW-32" value="&lt;font style=&quot;font-size: 15px;&quot;&gt;Lista Task&lt;br&gt;&lt;/font&gt;" style="edgeLabel;html=1;align=center;verticalAlign=middle;resizable=0;points=[];" vertex="1" connectable="0" parent="AIQE-jx9AXwTJlLra-hW-31">
          <mxGeometry x="-0.0574" relative="1" as="geometry">
            <mxPoint as="offset" />
          </mxGeometry>
        </mxCell>
        <mxCell id="AIQE-jx9AXwTJlLra-hW-42" value="&lt;font style=&quot;font-size: 20px;&quot;&gt;Microservizio &quot;Magazzino&quot;&lt;/font&gt;" style="rounded=0;whiteSpace=wrap;html=1;" vertex="1" parent="1">
          <mxGeometry x="1690" y="-230" width="130" height="140" as="geometry" />
        </mxCell>
        <mxCell id="AIQE-jx9AXwTJlLra-hW-43" value="&lt;span style=&quot;font-size: 20px;&quot;&gt;Microservizio &quot;Gestione Dipendenti&quot;&lt;/span&gt;" style="rounded=0;whiteSpace=wrap;html=1;" vertex="1" parent="1">
          <mxGeometry x="1970" y="-230" width="180" height="140" as="geometry" />
        </mxCell>
        <mxCell id="AIQE-jx9AXwTJlLra-hW-48" value="&lt;font style=&quot;font-size: 20px;&quot;&gt;Microservizio &quot;Negozio&quot;&lt;/font&gt;" style="rounded=0;whiteSpace=wrap;html=1;" vertex="1" parent="1">
          <mxGeometry x="1830" y="-230" width="130" height="140" as="geometry" />
        </mxCell>
        <mxCell id="AIQE-jx9AXwTJlLra-hW-49" value="" style="endArrow=classic;html=1;rounded=0;startArrow=none;startFill=0;endFill=1;" edge="1" parent="1">
          <mxGeometry width="50" height="50" relative="1" as="geometry">
            <mxPoint x="1919.94" y="-40" as="sourcePoint" />
            <mxPoint x="1919.58" y="80" as="targetPoint" />
          </mxGeometry>
        </mxCell>
        <mxCell id="AIQE-jx9AXwTJlLra-hW-50" value="&lt;font style=&quot;font-size: 15px;&quot;&gt;Creazione task&lt;/font&gt;" style="edgeLabel;html=1;align=center;verticalAlign=middle;resizable=0;points=[];" vertex="1" connectable="0" parent="AIQE-jx9AXwTJlLra-hW-49">
          <mxGeometry x="-0.0437" y="1" relative="1" as="geometry">
            <mxPoint as="offset" />
          </mxGeometry>
        </mxCell>
        <mxCell id="AIQE-jx9AXwTJlLra-hW-51" value="&lt;font style=&quot;font-size: 20px;&quot;&gt;Subordinati&lt;/font&gt;" style="text;html=1;strokeColor=none;fillColor=none;align=center;verticalAlign=middle;whiteSpace=wrap;rounded=0;" vertex="1" parent="1">
          <mxGeometry x="2390" y="50" width="130" height="30" as="geometry" />
        </mxCell>
        <mxCell id="AIQE-jx9AXwTJlLra-hW-52" value="&lt;font style=&quot;font-size: 20px;&quot;&gt;Attori&lt;/font&gt;" style="text;html=1;strokeColor=none;fillColor=none;align=center;verticalAlign=middle;whiteSpace=wrap;rounded=0;" vertex="1" parent="1">
          <mxGeometry x="1640" y="-270" width="130" height="30" as="geometry" />
        </mxCell>
        <mxCell id="AIQE-jx9AXwTJlLra-hW-55" value="" style="rounded=1;whiteSpace=wrap;html=1;fillColor=none;" vertex="1" parent="1">
          <mxGeometry x="1680" y="720" width="480" height="160" as="geometry" />
        </mxCell>
        <mxCell id="AIQE-jx9AXwTJlLra-hW-56" value="&lt;font style=&quot;font-size: 20px;&quot;&gt;Microservizio &quot;Feedback&quot;&lt;br&gt;e&lt;br&gt;&quot;Assistenza&quot;&lt;br&gt;&lt;/font&gt;" style="rounded=0;whiteSpace=wrap;html=1;" vertex="1" parent="1">
          <mxGeometry x="1850" y="730" width="140" height="140" as="geometry" />
        </mxCell>
        <mxCell id="AIQE-jx9AXwTJlLra-hW-57" value="&lt;span style=&quot;font-size: 20px;&quot;&gt;Microservizio &quot;Riparazione&quot;&lt;/span&gt;" style="rounded=0;whiteSpace=wrap;html=1;" vertex="1" parent="1">
          <mxGeometry x="2000" y="730" width="150" height="140" as="geometry" />
        </mxCell>
        <mxCell id="AIQE-jx9AXwTJlLra-hW-58" value="&lt;font style=&quot;font-size: 20px;&quot;&gt;Microservizio &quot;Autenticazione&quot;&lt;/font&gt;" style="rounded=0;whiteSpace=wrap;html=1;" vertex="1" parent="1">
          <mxGeometry x="1690" y="730" width="150" height="140" as="geometry" />
        </mxCell>
        <mxCell id="AIQE-jx9AXwTJlLra-hW-59" value="&lt;font style=&quot;font-size: 20px;&quot;&gt;Attori&lt;/font&gt;" style="text;html=1;strokeColor=none;fillColor=none;align=center;verticalAlign=middle;whiteSpace=wrap;rounded=0;" vertex="1" parent="1">
          <mxGeometry x="1640" y="880" width="130" height="30" as="geometry" />
        </mxCell>
        <mxCell id="AIQE-jx9AXwTJlLra-hW-60" value="" style="endArrow=classic;html=1;rounded=0;startArrow=none;startFill=0;endFill=1;" edge="1" parent="1">
          <mxGeometry width="50" height="50" relative="1" as="geometry">
            <mxPoint x="2000.3600000000001" y="-40" as="sourcePoint" />
            <mxPoint x="2000" y="80" as="targetPoint" />
          </mxGeometry>
        </mxCell>
        <mxCell id="AIQE-jx9AXwTJlLra-hW-61" value="&lt;span style=&quot;font-size: 15px;&quot;&gt;Assegna Work-Tag&lt;/span&gt;" style="edgeLabel;html=1;align=center;verticalAlign=middle;resizable=0;points=[];" vertex="1" connectable="0" parent="AIQE-jx9AXwTJlLra-hW-60">
          <mxGeometry x="-0.0437" y="1" relative="1" as="geometry">
            <mxPoint y="33" as="offset" />
          </mxGeometry>
        </mxCell>
        <mxCell id="AIQE-jx9AXwTJlLra-hW-62" value="" style="endArrow=classic;html=1;rounded=0;startArrow=none;startFill=0;endFill=1;" edge="1" parent="1">
          <mxGeometry width="50" height="50" relative="1" as="geometry">
            <mxPoint x="1760.03" y="-40" as="sourcePoint" />
            <mxPoint x="1759.6699999999998" y="80" as="targetPoint" />
          </mxGeometry>
        </mxCell>
        <mxCell id="AIQE-jx9AXwTJlLra-hW-63" value="&lt;font style=&quot;font-size: 15px;&quot;&gt;Creazione task&lt;/font&gt;" style="edgeLabel;html=1;align=center;verticalAlign=middle;resizable=0;points=[];" vertex="1" connectable="0" parent="AIQE-jx9AXwTJlLra-hW-62">
          <mxGeometry x="-0.0437" y="1" relative="1" as="geometry">
            <mxPoint as="offset" />
          </mxGeometry>
        </mxCell>
        <mxCell id="AIQE-jx9AXwTJlLra-hW-64" value="" style="endArrow=classic;html=1;rounded=0;" edge="1" parent="1">
          <mxGeometry width="50" height="50" relative="1" as="geometry">
            <mxPoint x="1480" y="237.04000000000002" as="sourcePoint" />
            <mxPoint x="1680" y="238" as="targetPoint" />
          </mxGeometry>
        </mxCell>
        <mxCell id="AIQE-jx9AXwTJlLra-hW-65" value="&lt;font style=&quot;font-size: 15px;&quot;&gt;Modifica Stato Task&lt;br&gt;&lt;/font&gt;" style="edgeLabel;html=1;align=center;verticalAlign=middle;resizable=0;points=[];" vertex="1" connectable="0" parent="AIQE-jx9AXwTJlLra-hW-64">
          <mxGeometry x="-0.0574" relative="1" as="geometry">
            <mxPoint as="offset" />
          </mxGeometry>
        </mxCell>
        <mxCell id="AIQE-jx9AXwTJlLra-hW-68" value="" style="endArrow=classic;html=1;rounded=0;startArrow=classic;startFill=1;endFill=1;" edge="1" parent="1">
          <mxGeometry width="50" height="50" relative="1" as="geometry">
            <mxPoint x="1759.6" y="560" as="sourcePoint" />
            <mxPoint x="1759.6" y="680" as="targetPoint" />
          </mxGeometry>
        </mxCell>
        <mxCell id="AIQE-jx9AXwTJlLra-hW-69" value="&lt;span style=&quot;font-size: 15px;&quot;&gt;Identifica utente&lt;/span&gt;" style="edgeLabel;html=1;align=center;verticalAlign=middle;resizable=0;points=[];" vertex="1" connectable="0" parent="AIQE-jx9AXwTJlLra-hW-68">
          <mxGeometry x="-0.0437" y="1" relative="1" as="geometry">
            <mxPoint y="3" as="offset" />
          </mxGeometry>
        </mxCell>
        <mxCell id="AIQE-jx9AXwTJlLra-hW-70" value="" style="endArrow=none;html=1;rounded=0;startArrow=classic;startFill=1;endFill=0;" edge="1" parent="1">
          <mxGeometry width="50" height="50" relative="1" as="geometry">
            <mxPoint x="1919.96" y="560" as="sourcePoint" />
            <mxPoint x="1919.6" y="680" as="targetPoint" />
          </mxGeometry>
        </mxCell>
        <mxCell id="AIQE-jx9AXwTJlLra-hW-71" value="&lt;font style=&quot;font-size: 15px;&quot;&gt;Creazione task&lt;/font&gt;" style="edgeLabel;html=1;align=center;verticalAlign=middle;resizable=0;points=[];" vertex="1" connectable="0" parent="AIQE-jx9AXwTJlLra-hW-70">
          <mxGeometry x="-0.0437" y="1" relative="1" as="geometry">
            <mxPoint as="offset" />
          </mxGeometry>
        </mxCell>
        <mxCell id="AIQE-jx9AXwTJlLra-hW-74" value="" style="endArrow=none;html=1;rounded=0;startArrow=classic;startFill=1;endFill=0;" edge="1" parent="1">
          <mxGeometry width="50" height="50" relative="1" as="geometry">
            <mxPoint x="2080.36" y="560" as="sourcePoint" />
            <mxPoint x="2080" y="680" as="targetPoint" />
          </mxGeometry>
        </mxCell>
        <mxCell id="AIQE-jx9AXwTJlLra-hW-75" value="&lt;font style=&quot;font-size: 15px;&quot;&gt;Creazione task&lt;/font&gt;" style="edgeLabel;html=1;align=center;verticalAlign=middle;resizable=0;points=[];" vertex="1" connectable="0" parent="AIQE-jx9AXwTJlLra-hW-74">
          <mxGeometry x="-0.0437" y="1" relative="1" as="geometry">
            <mxPoint as="offset" />
          </mxGeometry>
        </mxCell>
        <mxCell id="AIQE-jx9AXwTJlLra-hW-79" value="" style="endArrow=classic;html=1;rounded=0;" edge="1" parent="1">
          <mxGeometry width="50" height="50" relative="1" as="geometry">
            <mxPoint x="2160" y="354.35000000000014" as="sourcePoint" />
            <mxPoint x="2360" y="354" as="targetPoint" />
          </mxGeometry>
        </mxCell>
        <mxCell id="AIQE-jx9AXwTJlLra-hW-80" value="&lt;font style=&quot;font-size: 15px;&quot;&gt;Modifica Stato Task&lt;br&gt;&lt;/font&gt;" style="edgeLabel;html=1;align=center;verticalAlign=middle;resizable=0;points=[];" vertex="1" connectable="0" parent="AIQE-jx9AXwTJlLra-hW-79">
          <mxGeometry x="-0.0574" relative="1" as="geometry">
            <mxPoint as="offset" />
          </mxGeometry>
        </mxCell>
        <mxCell id="AIQE-jx9AXwTJlLra-hW-81" value="" style="endArrow=classic;html=1;rounded=0;" edge="1" parent="1">
          <mxGeometry width="50" height="50" relative="1" as="geometry">
            <mxPoint x="1480" y="386.52" as="sourcePoint" />
            <mxPoint x="1680" y="386.52" as="targetPoint" />
          </mxGeometry>
        </mxCell>
        <mxCell id="AIQE-jx9AXwTJlLra-hW-82" value="&lt;font style=&quot;font-size: 15px;&quot;&gt;Assegna Work-Tag&lt;/font&gt;" style="edgeLabel;html=1;align=center;verticalAlign=middle;resizable=0;points=[];" vertex="1" connectable="0" parent="AIQE-jx9AXwTJlLra-hW-81">
          <mxGeometry x="-0.0574" relative="1" as="geometry">
            <mxPoint as="offset" />
          </mxGeometry>
        </mxCell>
        <mxCell id="AIQE-jx9AXwTJlLra-hW-83" value="" style="endArrow=classic;html=1;rounded=0;" edge="1" parent="1">
          <mxGeometry width="50" height="50" relative="1" as="geometry">
            <mxPoint x="1480" y="418" as="sourcePoint" />
            <mxPoint x="1680" y="418.96000000000004" as="targetPoint" />
          </mxGeometry>
        </mxCell>
        <mxCell id="AIQE-jx9AXwTJlLra-hW-84" value="&lt;font style=&quot;font-size: 15px;&quot;&gt;Rimuovi Task&lt;br&gt;&lt;/font&gt;" style="edgeLabel;html=1;align=center;verticalAlign=middle;resizable=0;points=[];" vertex="1" connectable="0" parent="AIQE-jx9AXwTJlLra-hW-83">
          <mxGeometry x="-0.0574" relative="1" as="geometry">
            <mxPoint as="offset" />
          </mxGeometry>
        </mxCell>
        <mxCell id="AIQE-jx9AXwTJlLra-hW-85" value="" style="endArrow=none;html=1;rounded=0;startArrow=classic;startFill=1;endFill=0;" edge="1" parent="1">
          <mxGeometry width="50" height="50" relative="1" as="geometry">
            <mxPoint x="1480" y="540" as="sourcePoint" />
            <mxPoint x="1680" y="540.96" as="targetPoint" />
          </mxGeometry>
        </mxCell>
        <mxCell id="AIQE-jx9AXwTJlLra-hW-86" value="&lt;font style=&quot;font-size: 15px;&quot;&gt;Lista Task&lt;br&gt;&lt;/font&gt;" style="edgeLabel;html=1;align=center;verticalAlign=middle;resizable=0;points=[];" vertex="1" connectable="0" parent="AIQE-jx9AXwTJlLra-hW-85">
          <mxGeometry x="-0.0574" relative="1" as="geometry">
            <mxPoint as="offset" />
          </mxGeometry>
        </mxCell>
        <mxCell id="AIQE-jx9AXwTJlLra-hW-87" value="" style="endArrow=classic;html=1;rounded=0;" edge="1" parent="1">
          <mxGeometry width="50" height="50" relative="1" as="geometry">
            <mxPoint x="1480" y="479.99999999999994" as="sourcePoint" />
            <mxPoint x="1680" y="480.96" as="targetPoint" />
          </mxGeometry>
        </mxCell>
        <mxCell id="AIQE-jx9AXwTJlLra-hW-88" value="&lt;font style=&quot;font-size: 15px;&quot;&gt;Modifica Stato Task&lt;br&gt;&lt;/font&gt;" style="edgeLabel;html=1;align=center;verticalAlign=middle;resizable=0;points=[];" vertex="1" connectable="0" parent="AIQE-jx9AXwTJlLra-hW-87">
          <mxGeometry x="-0.0574" relative="1" as="geometry">
            <mxPoint as="offset" />
          </mxGeometry>
        </mxCell>
        <mxCell id="AIQE-jx9AXwTJlLra-hW-89" value="" style="endArrow=classic;html=1;rounded=0;startArrow=none;startFill=0;endFill=1;" edge="1" parent="1">
          <mxGeometry width="50" height="50" relative="1" as="geometry">
            <mxPoint x="2075.1200000000003" y="-40" as="sourcePoint" />
            <mxPoint x="2074.76" y="80" as="targetPoint" />
          </mxGeometry>
        </mxCell>
        <mxCell id="AIQE-jx9AXwTJlLra-hW-90" value="&lt;span style=&quot;font-size: 15px;&quot;&gt;Rimuovi Work-Tag&lt;/span&gt;" style="edgeLabel;html=1;align=center;verticalAlign=middle;resizable=0;points=[];" vertex="1" connectable="0" parent="AIQE-jx9AXwTJlLra-hW-89">
          <mxGeometry x="-0.0437" y="1" relative="1" as="geometry">
            <mxPoint x="-1" y="3" as="offset" />
          </mxGeometry>
        </mxCell>
        <mxCell id="AIQE-jx9AXwTJlLra-hW-91" value="" style="endArrow=none;html=1;rounded=0;startArrow=classic;startFill=1;endFill=0;" edge="1" parent="1">
          <mxGeometry width="50" height="50" relative="1" as="geometry">
            <mxPoint x="2149.88" y="-40" as="sourcePoint" />
            <mxPoint x="2149.52" y="80" as="targetPoint" />
          </mxGeometry>
        </mxCell>
        <mxCell id="AIQE-jx9AXwTJlLra-hW-92" value="&lt;span style=&quot;font-size: 15px;&quot;&gt;Lista Work-Tag&lt;/span&gt;" style="edgeLabel;html=1;align=center;verticalAlign=middle;resizable=0;points=[];" vertex="1" connectable="0" parent="AIQE-jx9AXwTJlLra-hW-91">
          <mxGeometry x="-0.0437" y="1" relative="1" as="geometry">
            <mxPoint x="-1" y="-27" as="offset" />
          </mxGeometry>
        </mxCell>
        <mxCell id="AIQE-jx9AXwTJlLra-hW-93" value="" style="endArrow=classic;html=1;rounded=0;" edge="1" parent="1">
          <mxGeometry width="50" height="50" relative="1" as="geometry">
            <mxPoint x="2160" y="237.99000000000007" as="sourcePoint" />
            <mxPoint x="2360" y="237.3" as="targetPoint" />
          </mxGeometry>
        </mxCell>
        <mxCell id="AIQE-jx9AXwTJlLra-hW-94" value="&lt;font style=&quot;font-size: 15px;&quot;&gt;Assegna Work-Tag&lt;br&gt;&lt;/font&gt;" style="edgeLabel;html=1;align=center;verticalAlign=middle;resizable=0;points=[];" vertex="1" connectable="0" parent="AIQE-jx9AXwTJlLra-hW-93">
          <mxGeometry x="-0.0574" relative="1" as="geometry">
            <mxPoint as="offset" />
          </mxGeometry>
        </mxCell>
        <mxCell id="AIQE-jx9AXwTJlLra-hW-95" value="" style="endArrow=classic;html=1;rounded=0;" edge="1" parent="1">
          <mxGeometry width="50" height="50" relative="1" as="geometry">
            <mxPoint x="2160" y="319.9300000000001" as="sourcePoint" />
            <mxPoint x="2360" y="319.58" as="targetPoint" />
          </mxGeometry>
        </mxCell>
        <mxCell id="AIQE-jx9AXwTJlLra-hW-96" value="&lt;font style=&quot;font-size: 15px;&quot;&gt;Rimuovi Work-Tag&lt;br&gt;&lt;/font&gt;" style="edgeLabel;html=1;align=center;verticalAlign=middle;resizable=0;points=[];" vertex="1" connectable="0" parent="AIQE-jx9AXwTJlLra-hW-95">
          <mxGeometry x="-0.0574" relative="1" as="geometry">
            <mxPoint as="offset" />
          </mxGeometry>
        </mxCell>
        <mxCell id="AIQE-jx9AXwTJlLra-hW-97" value="" style="endArrow=none;html=1;rounded=0;startArrow=classic;startFill=1;endFill=0;" edge="1" parent="1">
          <mxGeometry width="50" height="50" relative="1" as="geometry">
            <mxPoint x="2160" y="480.6900000000001" as="sourcePoint" />
            <mxPoint x="2360" y="480" as="targetPoint" />
          </mxGeometry>
        </mxCell>
        <mxCell id="AIQE-jx9AXwTJlLra-hW-98" value="&lt;font style=&quot;font-size: 15px;&quot;&gt;Lista Work-Tag&lt;br&gt;&lt;/font&gt;" style="edgeLabel;html=1;align=center;verticalAlign=middle;resizable=0;points=[];" vertex="1" connectable="0" parent="AIQE-jx9AXwTJlLra-hW-97">
          <mxGeometry x="-0.0574" relative="1" as="geometry">
            <mxPoint as="offset" />
          </mxGeometry>
        </mxCell>
        <mxCell id="AIQE-jx9AXwTJlLra-hW-100" value="" style="endArrow=none;html=1;rounded=0;startArrow=classic;startFill=1;endFill=0;" edge="1" parent="1">
          <mxGeometry width="50" height="50" relative="1" as="geometry">
            <mxPoint x="2160" y="398.6900000000001" as="sourcePoint" />
            <mxPoint x="2360" y="398" as="targetPoint" />
          </mxGeometry>
        </mxCell>
        <mxCell id="AIQE-jx9AXwTJlLra-hW-101" value="&lt;font style=&quot;font-size: 15px;&quot;&gt;Storico Task&lt;br&gt;&lt;/font&gt;" style="edgeLabel;html=1;align=center;verticalAlign=middle;resizable=0;points=[];" vertex="1" connectable="0" parent="AIQE-jx9AXwTJlLra-hW-100">
          <mxGeometry x="-0.0574" relative="1" as="geometry">
            <mxPoint as="offset" />
          </mxGeometry>
        </mxCell>
        <mxCell id="AIQE-jx9AXwTJlLra-hW-102" value="" style="endArrow=classic;html=1;rounded=0;" edge="1" parent="1">
          <mxGeometry width="50" height="50" relative="1" as="geometry">
            <mxPoint x="1480" y="360" as="sourcePoint" />
            <mxPoint x="1680" y="360" as="targetPoint" />
          </mxGeometry>
        </mxCell>
        <mxCell id="AIQE-jx9AXwTJlLra-hW-103" value="&lt;font style=&quot;font-size: 15px;&quot;&gt;Crea Task&lt;/font&gt;" style="edgeLabel;html=1;align=center;verticalAlign=middle;resizable=0;points=[];" vertex="1" connectable="0" parent="AIQE-jx9AXwTJlLra-hW-102">
          <mxGeometry x="-0.0574" relative="1" as="geometry">
            <mxPoint as="offset" />
          </mxGeometry>
        </mxCell>
        <mxCell id="AIQE-jx9AXwTJlLra-hW-104" value="" style="endArrow=classic;html=1;rounded=0;" edge="1" parent="1">
          <mxGeometry width="50" height="50" relative="1" as="geometry">
            <mxPoint x="1480" y="446.52" as="sourcePoint" />
            <mxPoint x="1680" y="447.48" as="targetPoint" />
          </mxGeometry>
        </mxCell>
        <mxCell id="AIQE-jx9AXwTJlLra-hW-105" value="&lt;font style=&quot;font-size: 15px;&quot;&gt;Rimuovi Work-Tag&lt;br&gt;&lt;/font&gt;" style="edgeLabel;html=1;align=center;verticalAlign=middle;resizable=0;points=[];" vertex="1" connectable="0" parent="AIQE-jx9AXwTJlLra-hW-104">
          <mxGeometry x="-0.0574" relative="1" as="geometry">
            <mxPoint as="offset" />
          </mxGeometry>
        </mxCell>
        <mxCell id="AIQE-jx9AXwTJlLra-hW-106" value="" style="endArrow=none;html=1;rounded=0;startArrow=classic;startFill=1;endFill=0;" edge="1" parent="1">
          <mxGeometry width="50" height="50" relative="1" as="geometry">
            <mxPoint x="1480" y="510" as="sourcePoint" />
            <mxPoint x="1680" y="510.96000000000004" as="targetPoint" />
          </mxGeometry>
        </mxCell>
        <mxCell id="AIQE-jx9AXwTJlLra-hW-107" value="&lt;font style=&quot;font-size: 15px;&quot;&gt;Storico Task&lt;br&gt;&lt;/font&gt;" style="edgeLabel;html=1;align=center;verticalAlign=middle;resizable=0;points=[];" vertex="1" connectable="0" parent="AIQE-jx9AXwTJlLra-hW-106">
          <mxGeometry x="-0.0574" relative="1" as="geometry">
            <mxPoint as="offset" />
          </mxGeometry>
        </mxCell>
      </root>
    </mxGraphModel>
  </diagram>
</mxfile>
